# xmcd CD database file
#
# Track frame offsets:
#	187
#	17837
#	38910
#	56552
#
# Disc length: 1034 seconds
#
# Revision: 0
# Processed by: cddbd v1.5.1PL0 Copyright (c) Steve Scherf et al.
# Submitted via: CDex 1.50beta10
#
DISCID=2c040804
DTITLE=高橋　由美子 - 笑顔の魔法
DYEAR=1900
DGENRE=JPop
TTITLE0=笑顔の魔法
TTITLE1=風の丘
TTITLE2=笑顔の魔法（カラオケ）
TTITLE3=風の丘（カラオケ）
EXTD=
EXTT0=
EXTT1=
EXTT2=
EXTT3=
PLAYORDER=
